<?xml version="1.0" standalone="no"?>
<!DOCTYPE svg PUBLIC "-//W3C//DTD SVG 20010904//EN"
 "http://www.w3.org/TR/2001/REC-SVG-20010904/DTD/svg10.dtd">
<svg version="1.0" xmlns="http://www.w3.org/2000/svg"
 width="2666.000000pt" height="2247.000000pt" viewBox="0 0 2666.000000 2247.000000"
 preserveAspectRatio="xMidYMid meet">

<g transform="translate(0.000000,2247.000000) scale(0.100000,-0.100000)"
fill="#000000" stroke="none">
<path d="M11775 17563 c-22 -1 -112 -7 -200 -13 -894 -59 -1814 -257 -2655
-572 -529 -198 -1091 -471 -1595 -776 -149 -89 -580 -374 -630 -416 -29 -24
-30 -25 -5 -20 31 6 41 15 -295 -253 -283 -226 -408 -337 -580 -514 -296 -304
-493 -582 -670 -944 -145 -296 -283 -687 -306 -870 -6 -44 -24 -151 -40 -239
-66 -357 -73 -443 -74 -886 0 -522 20 -713 121 -1120 304 -1235 1198 -2417
2474 -3270 339 -227 848 -507 1041 -574 42 -14 144 -54 225 -89 729 -313 1611
-565 2452 -703 119 -19 273 -39 342 -44 69 -4 231 -22 360 -38 445 -58 847
-93 1345 -117 2430 -118 4195 60 5710 575 1732 589 3119 1653 3904 2995 311
531 512 1076 611 1657 225 1322 -73 2584 -838 3545 -169 212 -511 531 -767
715 -538 387 -1281 698 -2140 897 -721 167 -1211 219 -1955 208 -309 -4 -384
-8 -429 -22 -30 -9 -103 -25 -163 -35 -107 -19 -109 -19 -154 1 -108 46 -646
243 -844 309 -1027 341 -2140 558 -3135 610 -170 9 -1009 11 -1110 3z m1262
-623 c838 -47 1815 -216 2638 -456 66 -20 123 -39 128 -43 4 -4 -118 -35 -270
-69 -332 -74 -684 -165 -874 -228 -130 -42 -157 -56 -126 -67 6 -2 -40 -16
-103 -31 -467 -109 -1312 -356 -1889 -551 -275 -93 -264 -88 -431 -181 -159
-88 -389 -194 -1160 -537 -1077 -478 -1569 -709 -2480 -1164 -738 -368 -1108
-566 -1572 -844 -262 -157 -502 -311 -514 -330 -4 -7 -3 -10 2 -7 395 228 760
428 783 428 7 0 126 63 264 139 1082 597 2149 1099 3347 1576 2054 817 3951
1349 5593 1570 141 19 273 35 293 35 37 0 342 -123 737 -299 224 -99 646 -302
1001 -481 168 -84 224 -104 166 -59 -105 82 -452 298 -805 502 -206 119 -250
148 -248 165 3 21 -50 60 -129 98 -20 9 -35 20 -33 24 3 4 -33 25 -80 46 -47
22 -85 42 -85 46 0 4 24 -3 53 -16 434 -195 1047 -504 1392 -701 168 -96 192
-108 170 -90 -11 9 -62 41 -112 72 -51 30 -93 57 -93 59 0 2 41 -16 90 -41 96
-48 119 -53 45 -9 -74 43 -51 38 33 -8 124 -67 423 -247 776 -465 180 -112
330 -202 333 -200 5 5 -158 137 -249 201 -38 26 -68 50 -68 53 0 6 283 -188
425 -291 174 -126 373 -277 593 -448 111 -87 202 -154 202 -150 0 12 -296 277
-460 412 -473 391 -1247 925 -1806 1246 -158 90 -540 292 -682 358 -34 16 -62
33 -62 38 0 11 107 10 375 -2 392 -18 665 -52 1083 -135 876 -175 1569 -437
2114 -801 216 -144 340 -246 529 -434 198 -197 270 -284 404 -485 211 -315
364 -652 464 -1019 117 -427 158 -768 148 -1236 -10 -483 -74 -863 -222 -1305
-396 -1190 -1337 -2263 -2635 -3005 -1121 -641 -2473 -1011 -4120 -1130 -705
-51 -1713 -52 -2640 -5 -2361 122 -3973 521 -5305 1313 -1231 732 -2144 1828
-2475 2971 -173 597 -206 1249 -94 1861 120 657 418 1274 831 1720 302 327
901 784 1484 1133 1297 777 2749 1206 4289 1267 238 10 779 4 1037 -10z m2788
-444 c55 -19 91 -35 81 -35 -17 -1 -184 55 -195 65 -11 10 24 1 114 -30z
m1781 -415 c167 -82 304 -152 304 -155 0 -2 -123 55 -272 128 -150 72 -293
142 -318 153 -25 12 -39 22 -31 22 7 1 150 -66 317 -148z"/>
<path d="M17380 16120 c8 -5 20 -10 25 -10 6 0 3 5 -5 10 -8 5 -19 10 -25 10
-5 0 -3 -5 5 -10z"/>
<path d="M17791 15926 c10 -9 249 -126 249 -121 0 5 -236 125 -247 125 -3 0
-4 -2 -2 -4z"/>
<path d="M18090 15775 c0 -2 32 -21 70 -40 39 -19 70 -33 70 -30 0 2 -31 21
-70 40 -38 19 -70 33 -70 30z"/>
<path d="M18260 15685 c0 -2 23 -16 50 -30 28 -14 50 -23 50 -20 0 2 -22 16
-50 30 -27 14 -50 23 -50 20z"/>
</g>
</svg>
