<?xml version="1.0" standalone="no"?>
<!DOCTYPE svg PUBLIC "-//W3C//DTD SVG 20010904//EN"
 "http://www.w3.org/TR/2001/REC-SVG-20010904/DTD/svg10.dtd">
<svg version="1.0" xmlns="http://www.w3.org/2000/svg"
 width="2666.000000pt" height="2247.000000pt" viewBox="0 0 2666.000000 2247.000000"
 preserveAspectRatio="xMidYMid meet">

<g transform="translate(0.000000,2247.000000) scale(0.100000,-0.100000)"
fill="#000000" stroke="none">
<path d="M12330 16131 c-58 -15 -157 -40 -220 -55 -148 -36 -494 -151 -782
-260 -768 -289 -1209 -502 -1890 -912 -1598 -960 -2972 -2246 -3923 -3669
-598 -894 -951 -1723 -1119 -2625 -58 -314 -107 -769 -77 -722 4 7 11 -105 15
-249 15 -591 68 -947 197 -1346 116 -356 322 -752 478 -917 32 -34 95 -108
141 -166 113 -143 449 -475 590 -584 634 -489 1349 -779 2238 -906 336 -47
460 -55 917 -55 447 1 617 11 1045 61 259 30 601 83 615 94 6 5 80 22 165 39
694 134 880 172 1208 242 481 103 819 182 957 226 61 19 290 81 510 138 812
210 1389 382 2265 674 1479 494 2946 1077 4302 1710 1227 572 1989 1054 2580
1630 391 381 647 723 854 1143 157 321 256 642 315 1023 27 177 38 623 20 827
-37 414 -169 926 -348 1347 -52 123 -200 422 -269 542 -74 130 -245 388 -353
533 -135 181 -286 350 -497 556 -195 191 -332 308 -515 442 -304 221 -743 461
-896 489 -32 6 -206 48 -388 94 -587 149 -889 202 -1358 240 -255 20 -373 20
-385 -1 -8 -14 -22 -15 -133 -5 -460 41 -1350 41 -1674 0 -49 -6 -138 -26
-196 -44 -113 -36 -353 -91 -764 -175 -279 -58 -806 -178 -1080 -246 -736
-185 -1693 -478 -2325 -712 -333 -123 -741 -290 -715 -291 6 -1 152 46 324
104 172 58 321 105 331 105 10 0 96 29 192 64 95 35 324 113 508 174 1390 460
2610 699 3938 773 293 16 1184 7 1422 -15 901 -83 1604 -246 2230 -518 669
-292 1263 -784 1725 -1433 384 -539 651 -1177 734 -1760 46 -321 53 -717 16
-955 -139 -903 -616 -1635 -1495 -2299 -653 -493 -1358 -872 -2695 -1448
-2262 -975 -4507 -1709 -6930 -2266 -1075 -248 -1837 -384 -2535 -453 -221
-21 -837 -30 -1080 -15 -1159 72 -2106 462 -2760 1137 -576 594 -859 1427
-811 2389 46 931 347 1845 919 2790 438 724 983 1405 1692 2115 470 470 910
854 1405 1225 94 70 175 132 180 137 20 20 -277 -169 -437 -280 -60 -40 -108
-71 -108 -69 0 8 286 219 443 326 398 273 850 558 1310 825 373 217 390 227
383 233 -13 13 -263 -88 -610 -246 -333 -152 -312 -144 -335 -129 -15 9 -29 7
-70 -11 -28 -12 -57 -19 -63 -15 -7 4 -8 3 -4 -4 4 -7 4 -12 -1 -13 -26 -2
-44 -10 -101 -44 -34 -21 -65 -36 -67 -33 -14 13 826 492 1160 662 39 19 66
35 62 36 -4 0 -20 -6 -35 -14 -50 -25 -77 -27 -30 -1 53 28 74 51 33 35 -15
-6 -35 -15 -46 -20 -10 -6 -19 -8 -19 -5 0 8 412 211 724 356 159 74 283 135
275 137 -8 1 -71 -15 -139 -37 -68 -22 -125 -39 -127 -37 -9 8 740 284 1007
371 47 15 89 31 95 36 13 13 3 11 -115 -20z m-1010 -401 c-8 -5 -19 -10 -25
-10 -5 0 -3 5 5 10 8 5 20 10 25 10 6 0 3 -5 -5 -10z m-1440 -815 c0 -2 -10
-9 -22 -15 -22 -11 -22 -10 -4 4 21 17 26 19 26 11z m-52 -30 c-18 -18 -418
-250 -418 -242 0 7 407 247 419 247 2 0 2 -2 -1 -5z"/>
<path d="M10324 15104 c-18 -14 -18 -15 4 -4 12 6 22 13 22 15 0 8 -5 6 -26
-11z"/>
</g>
</svg>
