<?xml version="1.0" standalone="no"?>
<!DOCTYPE svg PUBLIC "-//W3C//DTD SVG 20010904//EN"
 "http://www.w3.org/TR/2001/REC-SVG-20010904/DTD/svg10.dtd">
<svg version="1.0" xmlns="http://www.w3.org/2000/svg"
 width="2666.000000pt" height="2247.000000pt" viewBox="0 0 2666.000000 2247.000000"
 preserveAspectRatio="xMidYMid meet">

<g transform="translate(0.000000,2247.000000) scale(0.100000,-0.100000)"
fill="#000000" stroke="none">
<path d="M17760 19433 c-14 -2 -47 -10 -75 -18 -27 -8 -171 -37 -320 -65 -537
-101 -959 -212 -1525 -400 -395 -131 -790 -281 -790 -300 0 -5 7 -10 16 -12 9
-2 -46 -23 -122 -47 -901 -284 -1734 -585 -2083 -752 -105 -50 -219 -93 -415
-155 -2199 -699 -4140 -1798 -5811 -3290 -722 -646 -1267 -1257 -1716 -1925
-142 -213 -168 -256 -136 -230 28 22 20 3 -47 -118 -283 -513 -444 -867 -581
-1276 -144 -430 -215 -766 -256 -1210 -15 -161 -16 -489 -2 -540 7 -22 17
-107 23 -190 32 -427 89 -728 201 -1073 160 -487 403 -924 738 -1327 103 -124
442 -460 581 -576 662 -553 1486 -990 2515 -1334 403 -135 994 -299 1121 -310
30 -3 137 -23 238 -45 613 -132 1273 -226 1886 -270 237 -17 788 -23 950 -11
80 7 224 16 320 21 714 38 1291 119 1880 265 1582 392 3098 1159 4380 2214
518 427 1173 1092 1609 1636 896 1116 1506 2269 1922 3635 168 549 291 1194
345 1800 21 249 29 724 15 965 -71 1222 -443 2287 -1107 3170 -359 478 -796
884 -1254 1167 -577 356 -1183 551 -1860 598 -137 9 -586 12 -640 3z m790
-468 c540 -65 1002 -223 1448 -493 563 -342 1073 -865 1439 -1477 626 -1047
842 -2348 632 -3820 -58 -409 -160 -866 -283 -1261 -412 -1326 -1028 -2476
-1881 -3509 -866 -1049 -1905 -1917 -3076 -2573 -1141 -638 -2491 -1075 -3764
-1216 -1267 -141 -2644 -39 -3974 294 -1740 437 -3015 1122 -3767 2025 -455
547 -714 1166 -796 1910 -17 157 -17 651 0 810 86 788 330 1486 780 2230 920
1520 2895 3197 5097 4326 368 188 355 190 155 -23 -204 -216 -293 -320 -445
-523 -393 -523 -659 -1064 -784 -1595 -64 -273 -85 -455 -83 -735 2 -337 16
-397 25 -105 7 253 27 463 52 532 8 24 26 100 40 169 116 584 396 1175 808
1704 315 404 782 846 1007 952 436 205 1191 497 1735 671 121 39 263 85 315
101 132 43 65 30 -205 -39 -281 -72 -306 -77 -240 -49 138 58 902 257 1455
378 431 95 790 161 1394 257 77 12 103 20 88 25 -41 16 -578 -17 -932 -57
-241 -27 -309 -29 -323 -10 -11 15 -23 15 -152 1 -77 -8 -168 -19 -201 -25
-34 -5 -70 -10 -80 -10 -162 3 949 200 1541 274 86 11 99 14 60 16 -46 2 -41
4 50 20 85 15 93 18 55 20 -101 5 319 51 790 85 272 20 511 39 530 43 63 11
-150 20 -415 16 -219 -2 -237 -2 -140 7 67 6 412 9 880 6 l770 -3 -185 22
c-305 37 -516 46 -1090 46 -787 1 -1315 -32 -1898 -118 -128 -19 -241 -34
-250 -34 -35 1 16 19 358 128 1234 395 1948 565 2565 612 77 6 160 12 185 14
108 9 583 -4 710 -19z m-2882 -812 c-10 -2 -28 -2 -40 0 -13 2 -5 4 17 4 22 1
32 -1 23 -4z m-105 -40 c-7 -2 -19 -2 -25 0 -7 3 -2 5 12 5 14 0 19 -2 13 -5z
m-576 -69 c-3 -3 -12 -4 -19 -1 -8 3 -5 6 6 6 11 1 17 -2 13 -5z m-54 -11 c-7
-2 -21 -2 -30 0 -10 3 -4 5 12 5 17 0 24 -2 18 -5z m-75 -10 c-10 -2 -26 -2
-35 0 -10 3 -2 5 17 5 19 0 27 -2 18 -5z m-70 -10 c-10 -2 -26 -2 -35 0 -10 3
-2 5 17 5 19 0 27 -2 18 -5z m-65 -10 c-7 -2 -21 -2 -30 0 -10 3 -4 5 12 5 17
0 24 -2 18 -5z m-103 -15 c-30 -5 -183 -34 -339 -64 -156 -30 -289 -53 -295
-51 -19 6 606 125 659 125 17 0 5 -5 -25 -10z m-657 -125 c-7 -2 -19 -2 -25 0
-7 3 -2 5 12 5 14 0 19 -2 13 -5z m-1248 -623 c-11 -5 -27 -9 -35 -9 -9 0 -8
4 5 9 11 5 27 9 35 9 9 0 8 -4 -5 -9z"/>
<path d="M15713 18123 c9 -2 25 -2 35 0 9 3 1 5 -18 5 -19 0 -27 -2 -17 -5z"/>
</g>
</svg>
