<?xml version="1.0" standalone="no"?>
<!DOCTYPE svg PUBLIC "-//W3C//DTD SVG 20010904//EN"
 "http://www.w3.org/TR/2001/REC-SVG-20010904/DTD/svg10.dtd">
<svg version="1.0" xmlns="http://www.w3.org/2000/svg"
 width="2666.000000pt" height="2247.000000pt" viewBox="0 0 2666.000000 2247.000000"
 preserveAspectRatio="xMidYMid meet">

<g transform="translate(0.000000,2247.000000) scale(0.100000,-0.100000)"
fill="#000000" stroke="none">
<path d="M14730 17183 c-1771 -63 -3062 -265 -4251 -663 -680 -228 -1347 -539
-1897 -886 -686 -432 -1385 -1069 -1895 -1727 -281 -362 -496 -698 -712 -1110
-69 -131 -101 -181 -171 -262 -118 -137 -331 -421 -457 -612 -616 -931 -995
-2040 -1107 -3239 -57 -623 -51 -1395 16 -1854 72 -493 212 -941 439 -1405
474 -968 1244 -1740 2190 -2196 520 -250 1153 -405 1840 -450 263 -17 912 -6
1155 20 921 99 1708 284 2980 703 511 168 1151 394 1624 572 l228 87 232 19
c621 53 1236 134 1826 240 300 55 649 134 638 145 -4 4 -162 -14 -583 -64
-475 -58 -940 -101 -1083 -101 -73 0 -97 4 -110 16 -14 14 -35 16 -147 12 -71
-3 -119 -3 -105 0 14 2 28 9 31 14 4 6 139 25 300 44 330 37 615 77 954 134
237 40 762 137 780 144 23 9 -25 5 -109 -10 -48 -8 -90 -13 -92 -11 -2 1 41
13 96 26 106 23 131 37 53 28 -27 -3 -1 5 57 19 605 145 916 229 1199 324 179
60 443 161 437 167 -2 3 -109 -25 -236 -62 -127 -37 -234 -65 -236 -62 -2 2
24 12 58 22 125 37 517 177 703 251 210 84 531 236 700 333 129 74 331 206
342 224 4 6 -6 3 -22 -7 -217 -142 -656 -350 -1050 -499 -670 -251 -1327 -418
-2270 -577 -407 -68 -847 -133 -878 -128 -13 2 54 42 193 113 714 367 1356
773 1909 1209 869 684 1604 1506 2128 2381 535 893 874 1854 977 2765 40 357
52 882 27 1185 -33 397 -120 900 -201 1161 -11 37 -18 69 -16 72 3 2 173 -54
378 -126 417 -145 727 -247 734 -240 2 3 -168 69 -378 148 -521 195 -735 279
-752 295 -7 8 -37 83 -65 167 -109 320 -277 696 -431 963 -386 672 -914 1220
-1528 1587 -712 425 -1651 662 -2767 698 -254 8 -1470 11 -1675 3z m1620 -623
c555 -23 989 -78 1419 -181 68 -16 136 -29 151 -29 108 0 582 -183 845 -327
283 -155 506 -324 751 -568 247 -246 433 -481 602 -762 80 -133 280 -526 308
-606 13 -36 13 -39 -4 -35 -9 3 -224 80 -477 171 -2114 761 -3288 1102 -4500
1307 -399 67 -669 103 -1060 140 -385 35 -1153 51 -1521 30 -1324 -75 -2761
-426 -4037 -986 -240 -106 -659 -314 -871 -434 -98 -55 -180 -99 -182 -97 -6
6 128 133 281 266 153 134 305 256 505 406 80 60 168 130 195 156 88 83 431
283 775 454 881 436 1928 739 3160 915 719 103 1348 151 2410 183 244 8 1036
6 1250 -3z m-1560 -1085 c718 -59 1413 -181 2275 -400 855 -217 1757 -507
3155 -1017 l255 -93 57 -135 c267 -625 386 -1636 292 -2470 -101 -898 -431
-1827 -947 -2660 -263 -425 -604 -873 -929 -1221 -846 -903 -1794 -1588 -3073
-2219 -424 -209 -700 -332 -1207 -541 l-217 -89 -213 -12 c-303 -17 -1927 -17
-2188 0 -833 55 -1277 108 -1694 201 -1414 317 -2720 1220 -3545 2453 -187
279 -398 678 -519 983 -164 411 -269 824 -324 1275 -18 147 -22 231 -22 525
-1 357 6 465 45 735 56 385 166 801 305 1155 7 18 6 19 -11 5 -17 -14 -18 -13
-11 15 15 61 133 327 247 556 134 268 122 253 409 499 80 68 169 150 198 182
186 203 693 563 1195 849 449 256 898 464 1601 740 208 82 383 152 389 156 6
4 3 9 -9 13 -27 10 46 31 496 144 493 124 547 136 935 200 497 82 960 127
1495 146 173 6 392 17 485 25 94 8 195 17 225 19 116 8 673 -4 850 -19z
m-9424 -4513 c-44 -263 -58 -435 -63 -787 -4 -276 -2 -391 11 -545 81 -947
398 -1847 942 -2672 663 -1005 1656 -1843 2764 -2332 616 -273 1220 -427 1970
-506 377 -39 672 -54 1550 -78 l255 -8 -295 -96 c-1148 -376 -1938 -558 -2780
-639 -301 -29 -876 -32 -1135 -5 -587 60 -1030 169 -1455 360 -406 183 -826
476 -1179 821 -193 189 -313 324 -436 489 -490 660 -767 1370 -851 2186 -21
203 -30 861 -15 1120 48 833 204 1577 478 2270 71 182 245 549 251 531 2 -6
-4 -55 -12 -109z m13231 -5788 c-3 -3 -12 -4 -19 -1 -8 3 -5 6 6 6 11 1 17 -2
13 -5z m-70 -20 c-3 -3 -12 -4 -19 -1 -8 3 -5 6 6 6 11 1 17 -2 13 -5z m-1194
-371 c-7 -2 -19 -2 -25 0 -7 3 -2 5 12 5 14 0 19 -2 13 -5z m-50 -10 c-7 -2
-19 -2 -25 0 -7 3 -2 5 12 5 14 0 19 -2 13 -5z m-50 -10 c-7 -2 -19 -2 -25 0
-7 3 -2 5 12 5 14 0 19 -2 13 -5z m-56 -9 c-3 -3 -12 -4 -19 -1 -8 3 -5 6 6 6
11 1 17 -2 13 -5z m46 -21 c-7 -2 -19 -2 -25 0 -7 3 -2 5 12 5 14 0 19 -2 13
-5z m-60 -10 c-7 -2 -19 -2 -25 0 -7 3 -2 5 12 5 14 0 19 -2 13 -5z m-746
-119 c-3 -3 -12 -4 -19 -1 -8 3 -5 6 6 6 11 1 17 -2 13 -5z m-64 -11 c-7 -2
-21 -2 -30 0 -10 3 -4 5 12 5 17 0 24 -2 18 -5z m-75 -10 c-10 -2 -26 -2 -35
0 -10 3 -2 5 17 5 19 0 27 -2 18 -5z m-70 -10 c-10 -2 -28 -2 -40 0 -13 2 -5
4 17 4 22 1 32 -1 23 -4z m-80 -10 c-10 -2 -28 -2 -40 0 -13 2 -5 4 17 4 22 1
32 -1 23 -4z m-73 -8 c-20 -8 -497 -56 -508 -52 -7 2 17 7 53 11 36 4 137 15
225 25 150 17 253 24 230 16z"/>
<path d="M17518 4783 c7 -3 16 -2 19 1 4 3 -2 6 -13 5 -11 0 -14 -3 -6 -6z"/>
<path d="M17468 4773 c7 -3 16 -2 19 1 4 3 -2 6 -13 5 -11 0 -14 -3 -6 -6z"/>
<path d="M16578 4583 c7 -3 16 -2 19 1 4 3 -2 6 -13 5 -11 0 -14 -3 -6 -6z"/>
<path d="M16448 4563 c7 -3 16 -2 19 1 4 3 -2 6 -13 5 -11 0 -14 -3 -6 -6z"/>
<path d="M16308 4543 c7 -3 16 -2 19 1 4 3 -2 6 -13 5 -11 0 -14 -3 -6 -6z"/>
<path d="M16238 4533 c7 -3 16 -2 19 1 4 3 -2 6 -13 5 -11 0 -14 -3 -6 -6z"/>
<path d="M16158 4523 c6 -2 18 -2 25 0 6 3 1 5 -13 5 -14 0 -19 -2 -12 -5z"/>
<path d="M16088 4513 c7 -3 16 -2 19 1 4 3 -2 6 -13 5 -11 0 -14 -3 -6 -6z"/>
<path d="M16008 4503 c7 -3 16 -2 19 1 4 3 -2 6 -13 5 -11 0 -14 -3 -6 -6z"/>
<path d="M15928 4493 c7 -3 16 -2 19 1 4 3 -2 6 -13 5 -11 0 -14 -3 -6 -6z"/>
<path d="M15838 4483 c6 -2 18 -2 25 0 6 3 1 5 -13 5 -14 0 -19 -2 -12 -5z"/>
</g>
</svg>
