<?xml version="1.0" standalone="no"?>
<!DOCTYPE svg PUBLIC "-//W3C//DTD SVG 20010904//EN"
 "http://www.w3.org/TR/2001/REC-SVG-20010904/DTD/svg10.dtd">
<svg version="1.0" xmlns="http://www.w3.org/2000/svg"
 width="2666.000000pt" height="2247.000000pt" viewBox="0 0 2666.000000 2247.000000"
 preserveAspectRatio="xMidYMid meet">

<g transform="translate(0.000000,2247.000000) scale(0.100000,-0.100000)"
fill="#000000" stroke="none">
<path d="M17890 18993 c-755 -35 -1546 -113 -2320 -229 l-235 -35 -515 -5
c-538 -4 -820 -15 -1105 -40 -1478 -128 -2995 -517 -4355 -1114 -1523 -669
-2944 -1648 -4096 -2819 -364 -371 -429 -441 -580 -624 -70 -83 -256 -282
-413 -442 -305 -309 -447 -465 -626 -690 -696 -873 -1138 -1857 -1279 -2846
-36 -252 -46 -399 -46 -678 0 -355 28 -622 101 -955 36 -162 47 -196 58 -178
5 8 26 -39 56 -125 204 -588 467 -1073 820 -1513 253 -314 634 -688 960 -940
334 -259 931 -609 1160 -681 39 -12 158 -57 265 -101 761 -310 1450 -466 2285
-518 206 -13 814 -13 1020 0 1220 76 2574 403 4345 1050 700 256 1934 750
2031 814 19 13 170 85 335 161 1358 622 2377 1233 3164 1899 137 116 746 712
901 882 523 573 940 1190 1243 1840 85 183 205 474 245 596 22 66 25 70 146
173 68 58 127 111 131 118 6 9 4 9 -7 1 -161 -122 -219 -163 -219 -153 0 7 16
64 35 128 235 788 295 1650 171 2451 -140 895 -480 1663 -1024 2315 -105 125
-384 402 -522 516 -699 583 -1560 980 -2651 1223 -361 80 -758 145 -1122 182
-92 10 -164 21 -160 25 5 5 222 40 483 79 261 39 480 72 485 74 6 3 -21 5 -60
5 -60 1 -144 -5 -480 -34 -33 -3 -55 -3 -50 0 31 14 852 97 1295 130 184 14
362 27 395 30 33 2 148 9 255 16 107 6 197 13 199 15 5 5 -620 2 -719 -3z
m-1457 -200 c-7 -2 -19 -2 -25 0 -7 3 -2 5 12 5 14 0 19 -2 13 -5z m-1139
-598 c400 -10 1038 -73 1458 -144 1622 -275 2809 -903 3515 -1861 410 -556
670 -1248 765 -2033 18 -151 21 -238 22 -517 1 -343 -6 -452 -45 -730 -76
-535 -242 -1073 -492 -1591 -40 -85 -82 -161 -93 -170 -73 -63 -603 -408 -919
-599 -1914 -1155 -4125 -1877 -6415 -2094 -576 -55 -725 -61 -1470 -61 -689 0
-760 3 -1220 41 -1407 116 -2733 415 -4015 906 -795 304 -1357 642 -1760 1059
-213 220 -354 438 -449 691 -170 457 -150 959 60 1490 107 270 128 300 419
596 717 732 1682 1433 3027 2200 1358 774 2710 1403 4068 1893 135 49 241 88
236 89 -12 0 -803 -256 -885 -287 -35 -13 -65 -22 -67 -20 -11 11 682 257
1131 402 509 163 1118 342 1580 464 226 59 1096 275 1145 283 14 3 63 3 110 2
47 -2 179 -6 294 -9z m-904 -21 c-74 -13 -292 -55 -485 -93 -454 -90 -425 -85
-425 -66 0 21 -35 19 -162 -9 -58 -14 -116 -22 -129 -19 -15 4 -20 3 -15 -5 4
-7 2 -10 -7 -7 -7 3 -73 -10 -147 -30 -73 -19 -135 -33 -138 -31 -4 5 21 13
253 76 355 98 700 181 724 177 14 -3 44 -1 66 4 43 11 326 26 495 27 l105 0
-135 -24z m-1215 -140 c-214 -57 -394 -103 -399 -101 -14 5 735 205 769 206
11 0 -155 -47 -370 -105z m-418 -110 c-3 -3 -12 -4 -19 -1 -8 3 -5 6 6 6 11 1
17 -2 13 -5z m-1357 -208 c-1047 -366 -1945 -745 -2945 -1241 -335 -167 -940
-484 -1042 -547 -18 -11 -33 -18 -33 -15 0 14 316 219 600 389 850 510 1759
927 2671 1226 335 110 977 292 1029 291 8 0 -118 -46 -280 -103z m-7780 -6013
c0 -331 77 -660 225 -961 130 -267 248 -432 470 -661 348 -358 691 -599 1245
-875 353 -175 608 -280 749 -306 74 -13 209 -52 551 -156 314 -96 983 -267
1310 -335 130 -27 813 -143 985 -168 271 -39 682 -65 915 -59 36 1 171 -6 300
-15 554 -39 640 -42 1290 -42 449 0 702 4 805 13 83 7 258 22 390 33 372 31
491 46 605 78 170 48 330 86 585 141 1091 233 2204 567 3135 940 1019 407
2157 1003 2972 1556 109 74 200 134 204 134 15 0 -154 -283 -289 -485 -291
-434 -584 -782 -1023 -1215 -391 -385 -730 -666 -1189 -985 -1018 -708 -2166
-1277 -3970 -1970 -2414 -927 -3930 -1285 -5447 -1285 -462 0 -801 27 -1208
96 -1005 169 -1991 621 -2765 1265 -140 117 -428 401 -548 543 -436 509 -722
1060 -862 1657 -50 215 -70 339 -86 540 -14 180 -6 588 15 764 64 527 215
1031 457 1534 104 215 156 311 169 311 6 0 10 -39 10 -87z"/>
<path d="M13708 18123 c7 -3 16 -2 19 1 4 3 -2 6 -13 5 -11 0 -14 -3 -6 -6z"/>
<path d="M13668 18113 c7 -3 16 -2 19 1 4 3 -2 6 -13 5 -11 0 -14 -3 -6 -6z"/>
<path d="M13628 18103 c7 -3 16 -2 19 1 4 3 -2 6 -13 5 -11 0 -14 -3 -6 -6z"/>
<path d="M13588 18093 c7 -3 16 -2 19 1 4 3 -2 6 -13 5 -11 0 -14 -3 -6 -6z"/>
<path d="M13548 18083 c7 -3 16 -2 19 1 4 3 -2 6 -13 5 -11 0 -14 -3 -6 -6z"/>
<path d="M13248 18003 c7 -3 16 -2 19 1 4 3 -2 6 -13 5 -11 0 -14 -3 -6 -6z"/>
<path d="M18638 18993 c7 -3 16 -2 19 1 4 3 -2 6 -13 5 -11 0 -14 -3 -6 -6z"/>
</g>
</svg>
