<?xml version="1.0" standalone="no"?>
<!DOCTYPE svg PUBLIC "-//W3C//DTD SVG 20010904//EN"
 "http://www.w3.org/TR/2001/REC-SVG-20010904/DTD/svg10.dtd">
<svg version="1.0" xmlns="http://www.w3.org/2000/svg"
 width="2666.000000pt" height="2247.000000pt" viewBox="0 0 2666.000000 2247.000000"
 preserveAspectRatio="xMidYMid meet">

<g transform="translate(0.000000,2247.000000) scale(0.100000,-0.100000)"
fill="#000000" stroke="none">
<path d="M14865 17154 c-209 -12 -434 -23 -500 -23 -199 0 -1058 -85 -1830
-182 -2432 -303 -4203 -790 -5780 -1589 -854 -433 -1569 -915 -2240 -1509
-294 -260 -698 -684 -952 -998 -794 -981 -1311 -2118 -1517 -3334 -75 -437
-81 -517 -81 -1084 0 -548 3 -599 61 -955 177 -1100 642 -2056 1380 -2843 868
-923 1933 -1481 3294 -1723 445 -79 783 -110 1339 -124 784 -19 1418 20 2391
146 1848 239 3667 655 5415 1239 2001 667 3333 1353 4390 2260 683 587 1170
1206 1559 1985 312 625 490 1244 547 1899 16 182 6 756 -15 906 -72 504 -187
878 -403 1310 -221 442 -460 763 -864 1160 -403 396 -797 670 -1364 950 -621
306 -1222 486 -1920 574 -315 40 -389 43 -1040 48 -652 5 -919 -2 -1345 -32
-2727 -198 -5238 -945 -7274 -2167 -1008 -605 -1913 -1333 -2681 -2158 -281
-302 -366 -416 -494 -670 -362 -713 -368 -1635 -16 -2367 139 -291 284 -487
510 -693 150 -138 175 -150 42 -21 -181 176 -301 332 -412 534 -57 104 -37 88
29 -22 117 -198 312 -424 491 -568 200 -162 498 -330 760 -428 314 -119 727
-206 1105 -235 262 -20 871 -7 942 19 29 10 -60 18 -297 26 -343 12 -778 67
-1026 130 -118 30 -146 42 -152 64 -3 11 -37 29 -95 50 -55 20 -89 38 -85 44
4 6 -2 8 -15 5 -12 -4 -22 -2 -22 2 0 5 -15 12 -32 15 -43 9 -191 66 -185 71
2 2 44 -10 93 -26 449 -153 996 -224 1533 -200 329 16 477 29 261 25 -146 -3
-149 -3 -60 6 155 15 193 27 75 24 -104 -3 -100 -2 80 15 380 37 839 115 1180
201 119 30 247 70 242 75 -3 3 -78 -8 -168 -25 -218 -39 -291 -47 -149 -15
434 97 902 227 1272 354 316 108 363 133 103 55 -245 -74 -960 -250 -1255
-309 -662 -132 -1074 -172 -1697 -163 -490 7 -757 37 -1105 126 -395 101 -774
285 -1019 494 -334 285 -551 706 -613 1185 -21 159 -21 444 -1 599 53 404 211
755 475 1051 207 233 662 674 950 920 1170 1003 2449 1747 4015 2335 363 136
1049 353 1463 463 63 16 98 30 90 35 -19 12 22 25 302 95 773 195 1749 337
2895 424 83 6 182 18 220 26 187 39 1263 38 1715 -1 946 -83 1852 -385 2580
-860 949 -618 1554 -1489 1725 -2480 15 -82 33 -170 42 -195 22 -60 30 -526
14 -740 -45 -587 -253 -1250 -577 -1842 -82 -151 -301 -519 -361 -609 -171
-255 -522 -639 -858 -939 -1083 -967 -2413 -1653 -4600 -2373 -2139 -704
-4641 -1196 -6550 -1288 -315 -15 -1065 -6 -1315 15 -962 84 -1723 288 -2435
655 -1047 539 -1885 1458 -2308 2531 -337 856 -431 1863 -267 2870 135 826
422 1605 872 2368 44 75 93 167 108 204 15 36 62 124 105 195 395 648 922
1233 1770 1963 125 108 174 156 162 158 -24 5 22 39 290 215 592 391 1090 659
1828 987 121 54 246 110 279 124 32 15 104 53 160 85 640 369 1872 753 3241
1011 928 175 1609 257 3480 420 809 71 852 90 100 44z m-8265 -10275 c146 -50
308 -94 480 -130 74 -16 113 -26 85 -23 -70 7 -257 49 -405 90 -125 35 -310
101 -310 111 0 3 8 2 18 -2 9 -4 69 -25 132 -46z m2833 34 c-7 -2 -19 -2 -25
0 -7 3 -2 5 12 5 14 0 19 -2 13 -5z m-50 -10 c-7 -2 -19 -2 -25 0 -7 3 -2 5
12 5 14 0 19 -2 13 -5z m-2115 -190 c-10 -2 -26 -2 -35 0 -10 3 -2 5 17 5 19
0 27 -2 18 -5z m65 -10 c-7 -2 -21 -2 -30 0 -10 3 -4 5 12 5 17 0 24 -2 18 -5z"/>
<path d="M6788 6753 c7 -3 16 -2 19 1 4 3 -2 6 -13 5 -11 0 -14 -3 -6 -6z"/>
<path d="M7328 6653 c7 -3 16 -2 19 1 4 3 -2 6 -13 5 -11 0 -14 -3 -6 -6z"/>
<path d="M7408 6643 c7 -3 16 -2 19 1 4 3 -2 6 -13 5 -11 0 -14 -3 -6 -6z"/>
<path d="M7498 6633 c6 -2 18 -2 25 0 6 3 1 5 -13 5 -14 0 -19 -2 -12 -5z"/>
<path d="M7658 6623 c18 -2 45 -2 60 0 15 2 0 4 -33 4 -33 0 -45 -2 -27 -4z"/>
</g>
</svg>
